<?xml version="1.0" encoding="UTF-8"?>
<svg id="Light" xmlns="http://www.w3.org/2000/svg" viewBox="0 0 588.49 92.49">
  <defs>
    <style>
      .cls-1 {
        fill: #26284b;
      }

      .cls-2 {
        fill: #40b5e8;
      }
    </style>
  </defs>
  <g>
    <path class="cls-2" d="M10.36,38.86H0v-12.96h10.36v-7.12C10.36,7.51,18.01,0,29.41,0c3.5,0,7.12.78,9.2,1.81v11.14h-7c-3.89,0-5.7,1.81-5.7,5.7v7.25h12.7v12.96h-12.7v51.82h-15.55v-51.82ZM43.27,1.81h15.55v88.87h-15.55V1.81Z"/>
    <path class="cls-2" d="M128.44,90.68h-15.55v-4.79c-4.27,4.01-11.27,6.61-17.62,6.61-17.75,0-29.54-10.49-29.54-26.3V25.91h15.55v38.47c0,8.68,6.35,14.38,15.8,14.38s15.8-5.7,15.8-14.38V25.91h15.55v64.77Z"/>
    <path class="cls-2" d="M159.39,56.48l-22.67-30.57h18.91l12.82,19.43,12.57-19.43h19.04l-22.67,30.57,25.13,34.2h-19.04l-15.03-22.93-15.16,22.93h-19.04l25.13-34.2Z"/>
    <path class="cls-2" d="M198.27,58.29c0-20.47,13.99-34.2,35.11-34.2s35.1,13.73,35.1,34.2-13.99,34.2-35.1,34.2-35.11-13.73-35.11-34.2ZM252.94,58.29c0-12.31-7.77-20.47-19.56-20.47s-19.56,8.16-19.56,20.47,7.77,20.47,19.56,20.47,19.56-8.16,19.56-20.47Z"/>
    <path class="cls-2" d="M364.24,58.29c0-20.47,13.99-34.2,35.11-34.2s35.1,13.73,35.1,34.2v2.98l-1.3,1.29h-53.11c1.43,10.24,9.2,16.97,19.3,16.97,7.64,0,14.77-4.4,17.75-10.88h15.8c-4.27,14.25-17.75,23.84-33.55,23.84-21.12,0-35.11-13.73-35.11-34.2ZM417.61,49.61c-2.98-8.03-9.59-12.56-18.26-12.56s-15.29,4.53-18.27,12.56h36.53Z"/>
    <path class="cls-2" d="M518.86,79.54v11.14c-2.33,1.04-6.74,1.81-11.01,1.81-12.95,0-21.5-7.38-21.5-18.39v-35.23h-12.17c-10.11,0-16.84,5.83-16.84,14.51v37.31h-15.55V25.91h15.55v7.9c2.85-4.79,9.33-7.9,15.93-7.9h13.08V1.81h15.55v24.09h16.32v12.96h-16.32v35.23c0,3.24,2.33,5.44,5.7,5.44h11.27Z"/>
    <path class="cls-2" d="M518.28,58.29c0-20.47,13.99-34.2,35.11-34.2s35.1,13.73,35.1,34.2-13.99,34.2-35.1,34.2-35.11-13.73-35.11-34.2ZM572.95,58.29c0-12.31-7.77-20.47-19.56-20.47s-19.56,8.16-19.56,20.47,7.77,20.47,19.56,20.47,19.56-8.16,19.56-20.47Z"/>
  </g>
  <g>
    <path class="cls-1" d="M326.55,78.76c-11.79,0-19.56-8.16-19.56-20.47s7.77-20.47,19.56-20.47c7.87,0,14.4,3.9,17.51,10.09h15.45c-4.09-14.4-16.8-23.82-32.96-23.82-21.12,0-35.11,13.73-35.11,34.2s13.99,34.2,35.11,34.2c16.07,0,28.76-9.39,32.94-23.82h-15.52c-3.16,6.19-9.65,10.09-17.43,10.09Z"/>
    <circle class="cls-1" cx="352.22" cy="58.29" r="5.31" transform="translate(61.94 266.13) rotate(-45)"/>
  </g>
</svg>


